# xmcd
#
# Track frame offsets: 
#        150
#        10974
#        24641
#        40335
#        57050
#        75723
#        89780
#        102242
#        113720
#        129025
#        140201
#        152704
#        170103
#
# Disc length: 2531 seconds
#
# Revision: 0
# Processed by: cddbd v1.5.2PL0 Copyright (c) Steve Scherf et al.
# Submitted via: ExactAudioCopyFreeDBPlugin 1.0
#
DISCID=ab09e10d
DTITLE=Sentinel - Tohle tě nezabije
DYEAR=2004
DGENRE=Folk
TTITLE0=Sentinel
TTITLE1=Nebeské váhy
TTITLE2=Virginský tabák
TTITLE3=Děravej chlap
TTITLE4=Tohle tě zabije
TTITLE5=1920
TTITLE6=Pár slov
TTITLE7=Pontiac
TTITLE8=Cestou domů
TTITLE9=Nic víc a nic míň
TTITLE10=Já tě hlídám
TTITLE11=Deka
TTITLE12=Karetní hráč
EXTD=
EXTT0=
EXTT1=
EXTT2=
EXTT3=
EXTT4=
EXTT5=
EXTT6=
EXTT7=
EXTT8=
EXTT9=
EXTT10=
EXTT11=
EXTT12=
PLAYORDER=
